<svg class="ic_logo" height="45px" width="57px" viewBox="0 0 38 24" version="1.1" 
    xmlns="http://www.w3.org/2000/svg">
    <title>ic-logo</title>
    <g stroke="none" stroke-width="1" id="g-fill" fill-rule="evenodd" fill="#F7991C">
        <g transform="translate(0.047619, 0.000000)" id="g-transform">
            <polygon points="19.013,20.544 38,8.671 38,11.861 19.013,23.76 0,11.861 0,8.671"></polygon>
            <path d="M18.988,5.684c-4.278,0-8.051,2.177-10.253,5.494H8.76c0.152-0.126,0.304-0.278,0.456-0.405 c5.342-4.43,13.038-3.443,17.241,2.152l2.81-1.747l0,0C27.064,7.886,23.291,5.684,18.988,5.684"></path>
            <path d="M18.988,11.152c-2.329,0-4.38,1.139-5.62,2.912c1.013-0.709,2.177-1.114,3.417-1.114 c2.051,0,3.874,1.089,5.139,2.836l2.709-1.696l0,0C23.393,12.317,21.342,11.152,18.988,11.152"></path>
            <path d="M6.152,6.367c7.823-6.203,18.912-4.557,24.785,3.671l0.051,0.05l2.886-1.797l0,0 C30.709,3.456,25.24,0.24,18.988,0.24c-6.126,0-11.671,3.165-14.861,8.051C4.709,7.684,5.469,6.899,6.152,6.367"></path>
        </g>
    </g>
</svg>